<?xml version="1.0" encoding="UTF-8" standalone="no"?>
<svg
   version="1.1"
   width="16"
   height="16"
   viewBox="0 0 36 36"
   preserveAspectRatio="xMidYMid"
   id="svg2"
   sodipodi:docname="history-line-icon-original.svg"
   xmlns:inkscape="http://www.inkscape.org/namespaces/inkscape"
   xmlns:sodipodi="http://sodipodi.sourceforge.net/DTD/sodipodi-0.dtd"
   xmlns="http://www.w3.org/2000/svg"
   xmlns:svg="http://www.w3.org/2000/svg">
  <defs
     id="defs2" />
  <sodipodi:namedview
     id="namedview2"
     pagecolor="#ffffff"
     bordercolor="#000000"
     borderopacity="0.25"
     inkscape:showpageshadow="2"
     inkscape:pageopacity="0.0"
     inkscape:pagecheckerboard="0"
     inkscape:deskcolor="#d1d1d1" />
  <title
     id="title1">history-line</title>
  <path
     stroke="#ffffff"
     fill="#ffffff"
     d="m 18,9.83 a 1,1 0 0 1 1,1 v 8.72 l -5.9,4 A 1,1 0 0 1 12,21.88 l 5,-3.39 v -7.66 a 1,1 0 0 1 1,-1 z"
     class="clr-i-outline clr-i-outline-path-1"
     id="path1" />
  <path
     stroke="#ffffff"
     fill="#ffffff"
     d="m 18,2 a 16.09,16.09 0 0 1 14,8.26 V 5.2 a 1,1 0 0 1 2,0 V 14 h -8.8 a 1,1 0 0 1 0,-2 h 5.45 A 14,14 0 1 0 27.42,28.35 1.0016112,1.0016112 0 0 1 28.77,29.83 16,16 0 1 1 18,2 Z"
     class="clr-i-outline clr-i-outline-path-2"
     id="path2" />
  <rect
     x="-16"
     y="0"
     width="16"
     height="16"
     fill-opacity="0"
     id="rect2"
     transform="scale(-1,1)"
     inkscape:export-filename="extend.svg"
     inkscape:export-xdpi="96"
     inkscape:export-ydpi="96" />
</svg>
